<svg width="35" height="40" viewBox="0 0 35 40" fill="none" xmlns="http://www.w3.org/2000/svg">
  <rect x="2" y="4" width="31" height="32" rx="2" fill="#FF4782"/>
  <circle cx="17.5" cy="16" r="6" fill="white"/>
  <path d="M17.5 8c-4.4 0-8 3.6-8 8s3.6 8 8 8 8-3.6 8-8-3.6-8-8-8zm0 12c-2.2 0-4-1.8-4-4s1.8-4 4-4 4 1.8 4 4-1.8 4-4 4z" fill="#FF4782"/>
  <rect x="8" y="26" width="19" height="2" rx="1" fill="white"/>
  <rect x="8" y="30" width="15" height="2" rx="1" fill="white"/>
  <rect x="8" y="34" width="19" height="2" rx="1" fill="white"/>
  <path d="M26 20l3-3m-3 3l-3-3m3 3v6" stroke="white" stroke-width="2" stroke-linecap="round" stroke-linejoin="round"/>
</svg>

