<svg width="40" height="40" viewBox="0 0 40 40" fill="none" xmlns="http://www.w3.org/2000/svg">
  <circle cx="12" cy="12" r="4" fill="#FF4782"/>
  <circle cx="28" cy="12" r="4" fill="#FF4782"/>
  <path d="M6 28c0-4 2.7-7.3 6-8.5M34 28c0-4-2.7-7.3-6-8.5" stroke="#FF4782" stroke-width="2" stroke-linecap="round"/>
  <path d="M12 16c-2.2 0-4 1.8-4 4v8h8c0-2.2-1.8-4-4-4zM28 16c2.2 0 4 1.8 4 4v8h-8c0-2.2 1.8-4 4-4z" fill="#FF4782"/>
  <circle cx="12" cy="12" r="2" fill="white"/>
  <circle cx="28" cy="12" r="2" fill="white"/>
</svg>

