<svg width="35" height="40" viewBox="0 0 35 40" fill="none" xmlns="http://www.w3.org/2000/svg">
  <circle cx="17.5" cy="20" r="15" fill="#FF4782"/>
  <path d="M17.5 8C12.8 8 9 11.8 9 16.5c0 1.5.4 3 1.1 4.3L8 28l7.5-2c1.3.7 2.8 1.1 4.3 1.1 4.7 0 8.5-3.8 8.5-8.5S22.2 8 17.5 8zm0 14.5c-1.2 0-2.3-.3-3.3-.9l-.5-.3-2.5.7.7-2.4-.3-.5c-.6-1-.9-2.1-.9-3.3 0-3.3 2.7-6 6-6s6 2.7 6 6-2.7 6-6 6z" fill="white"/>
  <circle cx="15.5" cy="16.5" r="1.5" fill="#FF4782"/>
  <circle cx="19.5" cy="16.5" r="1.5" fill="#FF4782"/>
  <path d="M17.5 20.5c-1.1 0-2-.9-2-2h4c0 1.1-.9 2-2 2z" fill="#FF4782"/>
</svg>

